<?xml version="1.0" encoding="utf-8"?>
<!-- Generator: Adobe Illustrator 25.3.1, SVG Export Plug-In . SVG Version: 6.00 Build 0)  -->
<svg version="1.1" id="Layer_1" xmlns="http://www.w3.org/2000/svg" xmlns:xlink="http://www.w3.org/1999/xlink" x="0px" y="0px"
	 viewBox="0 0 295.5 272.7" style="enable-background:new 0 0 295.5 272.7;" xml:space="preserve">
<style type="text/css">
	.st0{fill:#ED1C24;}
</style>
<g>
	<path d="M266.2,97.8c0.4-0.1,0.8,0.1,0.9,0.5c0,0,0,0,0,0c0.1,0.4-0.1,0.8-0.5,0.9l-12.8,3.7c-0.4,0.1-0.8-0.1-0.9-0.5
		c-0.1-0.4,0.1-0.8,0.5-0.9L266.2,97.8z"/>
	<path d="M263.3,89c0.4-0.1,0.8,0.1,0.9,0.5c0.1,0.4-0.1,0.7-0.4,0.9L251.3,95c-0.4,0.1-0.8-0.1-0.9-0.5c-0.1-0.4,0.1-0.7,0.4-0.9
		L263.3,89z"/>
	<path d="M259.7,80.4c0.4-0.2,0.8,0,1,0.3s0,0.8-0.3,1c0,0,0,0,0,0l-12.2,5.4c-0.4,0.2-0.8,0.1-1-0.3c-0.2-0.4-0.1-0.8,0.3-1
		c0,0,0.1,0,0.1,0L259.7,80.4z"/>
	<path d="M255.6,72.1c0.3-0.2,0.8-0.1,1,0.3c0,0,0,0,0,0c0.2,0.4,0.1,0.8-0.3,1c0,0,0,0,0,0l-11.8,6.3c-0.4,0.2-0.8,0-1-0.3
		c-0.2-0.4-0.1-0.8,0.3-1c0,0,0,0,0,0L255.6,72.1z"/>
	<path d="M250.9,64c0.3-0.2,0.8-0.1,1,0.2c0.2,0.3,0.1,0.8-0.2,1l-11.3,7c-0.3,0.2-0.8,0.1-1-0.2c-0.2-0.3-0.1-0.8,0.2-1L250.9,64z"
		/>
	<path d="M245.7,56.3c0.3-0.3,0.8-0.2,1,0.1c0.3,0.3,0.2,0.8-0.1,1c0,0-0.1,0.1-0.1,0.1l-10.8,7.8c-0.3,0.3-0.8,0.2-1-0.1
		c-0.3-0.3-0.2-0.8,0.1-1c0,0,0.1-0.1,0.1-0.1L245.7,56.3z"/>
	<path d="M240,49c0.3-0.2,0.7-0.2,1,0.1c0.2,0.3,0.2,0.7-0.1,1l-10.2,8.5c-0.3,0.2-0.7,0.2-1-0.1c-0.2-0.3-0.2-0.7,0.1-1L240,49z"/>
	<path d="M233.8,42.1c0.3-0.3,0.7-0.3,1,0c0.3,0.3,0.3,0.7,0,1l-9.6,9.2c-0.3,0.3-0.8,0.2-1-0.1c-0.2-0.3-0.2-0.7,0-1L233.8,42.1z"
		/>
	<path d="M227.1,35.6c0.3-0.3,0.7-0.3,1,0c0.3,0.3,0.3,0.7,0,1l0,0l-9,9.8c-0.3,0.3-0.7,0.3-1,0c-0.3-0.3-0.3-0.7,0-1L227.1,35.6z"
		/>
	<path d="M220,29.6c0.2-0.3,0.7-0.4,1-0.2s0.4,0.7,0.2,1c0,0,0,0,0,0L212.8,41c-0.3,0.3-0.7,0.3-1,0.1c-0.3-0.2-0.4-0.7-0.1-1
		L220,29.6z"/>
	<path d="M212.4,24.1c0.2-0.3,0.7-0.4,1-0.2c0.3,0.2,0.4,0.7,0.2,1c0,0,0,0,0,0l-7.5,11c-0.2,0.3-0.7,0.4-1,0.2
		c-0.3-0.2-0.4-0.7-0.2-1L212.4,24.1z"/>
	<path d="M204.6,19.2c0.2-0.4,0.6-0.5,1-0.4s0.5,0.6,0.4,1c0,0,0,0.1-0.1,0.1l-6.7,11.5c-0.2,0.3-0.7,0.5-1,0.3s-0.5-0.7-0.3-1
		L204.6,19.2z"/>
	<path d="M196.4,14.8c0.2-0.4,0.6-0.5,1-0.3c0,0,0,0,0,0c0.4,0.2,0.5,0.6,0.3,1l-6,11.9c-0.2,0.4-0.6,0.5-1,0.3
		c-0.4-0.2-0.5-0.6-0.3-1c0,0,0,0,0,0L196.4,14.8z"/>
	<path d="M187.9,10.9c0.1-0.4,0.5-0.6,0.9-0.5c0.4,0.1,0.6,0.5,0.5,0.9c0,0,0,0.1-0.1,0.1l-5.1,12.3c-0.2,0.4-0.6,0.5-1,0.4
		c-0.4-0.2-0.5-0.6-0.4-1L187.9,10.9z"/>
	<path d="M179.2,7.7c0.1-0.4,0.5-0.6,0.9-0.5c0.4,0.1,0.6,0.5,0.5,0.9l-4.3,12.6c-0.1,0.4-0.5,0.6-0.9,0.5c-0.4-0.1-0.6-0.5-0.5-0.9
		L179.2,7.7z"/>
	<path d="M170.1,5c0.1-0.4,0.5-0.6,0.9-0.5c0.4,0.1,0.6,0.5,0.5,0.9c0,0,0,0,0,0l-3.2,12.9c-0.1,0.4-0.5,0.6-0.9,0.5
		s-0.6-0.5-0.5-0.9L170.1,5z"/>
	<path d="M161.2,3c0.1-0.4,0.5-0.6,0.9-0.6c0.4,0.1,0.6,0.5,0.6,0.9l-2.5,13.1c-0.1,0.4-0.4,0.7-0.8,0.6c-0.4-0.1-0.7-0.4-0.6-0.8
		c0,0,0-0.1,0-0.1L161.2,3z"/>
	<path d="M152,1.6c0.1-0.4,0.4-0.7,0.8-0.6c0.4,0.1,0.7,0.4,0.6,0.8L151.8,15c0,0.4-0.4,0.7-0.8,0.6s-0.7-0.4-0.6-0.8l0,0L152,1.6z"
		/>
	<path d="M142.7,0.9c0-0.4,0.4-0.7,0.8-0.7s0.7,0.4,0.7,0.8l-0.7,13.3c0,0.4-0.4,0.7-0.8,0.7c-0.4,0-0.7-0.4-0.7-0.8L142.7,0.9z"/>
	<path d="M133.4,0.7c0-0.4,0.3-0.7,0.7-0.7c0.4,0,0.7,0.3,0.7,0.7l0.2,13.3c0,0.4-0.3,0.7-0.7,0.7c-0.4,0-0.7-0.3-0.7-0.7L133.4,0.7
		z"/>
	<path d="M124.1,1.2c-0.1-0.4,0.2-0.8,0.6-0.8s0.8,0.2,0.8,0.6c0,0,0,0.1,0,0.1l1.2,13.3c0,0.4-0.3,0.7-0.7,0.7
		c-0.4,0-0.7-0.3-0.7-0.6L124.1,1.2z"/>
	<path d="M114.9,2.4c-0.1-0.4,0.2-0.8,0.6-0.8c0.4-0.1,0.8,0.2,0.8,0.6l2,13.2c0.1,0.4-0.2,0.8-0.6,0.8c-0.4,0.1-0.8-0.2-0.8-0.6
		L114.9,2.4z"/>
	<path d="M105.7,4.2c-0.1-0.4,0.2-0.8,0.6-0.9c0.4-0.1,0.8,0.2,0.9,0.6l2.9,13c0.1,0.4-0.1,0.8-0.5,0.9c-0.4,0.1-0.8-0.1-0.9-0.5
		c0,0,0-0.1,0-0.1L105.7,4.2z"/>
	<path d="M96.7,6.6c-0.1-0.4,0.1-0.8,0.5-0.9s0.8,0.1,0.9,0.5l3.8,12.8c0.1,0.4-0.1,0.8-0.5,0.9c-0.4,0.1-0.8-0.1-0.9-0.5L96.7,6.6z
		"/>
	<path d="M88,9.6c-0.1-0.4,0.1-0.8,0.4-0.9s0.8,0.1,0.9,0.4L94,21.6c0.1,0.4-0.1,0.8-0.5,0.9c-0.3,0.1-0.7-0.1-0.8-0.4L88,9.6z"/>
	<path d="M79.4,13.2c-0.2-0.4,0-0.8,0.4-1c0.4-0.2,0.8,0,1,0.4l0,0l5.5,12.1c0.2,0.4,0,0.8-0.3,1c0,0,0,0,0,0c-0.4,0.2-0.8,0-1-0.3
		c0,0,0,0,0,0L79.4,13.2z"/>
	<path d="M71.1,17.4c-0.2-0.4-0.1-0.8,0.3-1c0,0,0,0,0,0c0.4-0.2,0.8-0.1,1,0.3l6.3,11.7c0.2,0.4,0.1,0.8-0.3,1
		c-0.4,0.2-0.8,0.1-1-0.3c0,0,0,0,0,0L71.1,17.4z"/>
	<path d="M63.1,22.2c-0.2-0.3-0.1-0.8,0.2-1c0.3-0.2,0.8-0.1,1,0.2l0,0l7.1,11.3c0.2,0.3,0.1,0.8-0.2,1c-0.3,0.2-0.8,0.1-1-0.2
		L63.1,22.2z"/>
	<path d="M55.4,27.5c-0.2-0.3-0.2-0.8,0.1-1c0.3-0.2,0.8-0.2,1,0.1l7.9,10.7c0.3,0.3,0.2,0.8,0,1c-0.3,0.3-0.8,0.2-1,0
		c0,0-0.1-0.1-0.1-0.1L55.4,27.5z"/>
	<path d="M48.1,33.3c-0.3-0.3-0.3-0.7,0-1c0.3-0.3,0.7-0.3,1,0c0,0,0.1,0.1,0.1,0.1l8.6,10.2c0.3,0.3,0.2,0.8-0.1,1s-0.8,0.2-1-0.1
		l0,0L48.1,33.3z"/>
	<path d="M41.3,39.5c-0.3-0.2-0.4-0.7-0.2-1s0.7-0.4,1-0.2c0.1,0.1,0.1,0.1,0.2,0.2l9.3,9.6c0.3,0.2,0.4,0.7,0.2,1s-0.7,0.4-1,0.2
		c-0.1-0.1-0.1-0.1-0.2-0.2L41.3,39.5z"/>
	<path d="M34.9,46.3c-0.3-0.3-0.3-0.7-0.1-1c0.3-0.3,0.7-0.3,1,0l9.9,8.9c0.3,0.3,0.3,0.7,0.1,1c-0.3,0.3-0.7,0.3-1,0L34.9,46.3z"/>
	<path d="M28.9,53.4c-0.3-0.2-0.4-0.7-0.2-1s0.7-0.4,1-0.2c0,0,0.1,0.1,0.1,0.1l10.5,8.2c0.3,0.2,0.4,0.7,0.1,1
		c-0.3,0.3-0.7,0.4-1,0.1L28.9,53.4z"/>
	<path d="M23.5,61c-0.3-0.2-0.4-0.7-0.2-1s0.7-0.4,1-0.2l0,0l11,7.5c0.4,0.2,0.5,0.6,0.3,1c-0.2,0.4-0.6,0.5-1,0.3
		c0,0-0.1,0-0.1-0.1L23.5,61z"/>
	<path d="M18.6,68.9c-0.3-0.2-0.4-0.7-0.2-1c0.2-0.3,0.6-0.4,0.9-0.2l11.5,6.7c0.4,0.2,0.5,0.6,0.3,1c-0.2,0.4-0.6,0.5-1,0.3
		c0,0-0.1,0-0.1-0.1L18.6,68.9z"/>
	<path d="M14.3,77.1c-0.4-0.2-0.5-0.6-0.3-1c0.2-0.3,0.6-0.5,0.9-0.3l12,5.9c0.4,0.2,0.5,0.6,0.4,1c-0.2,0.4-0.6,0.5-1,0.4
		c0,0,0,0-0.1,0L14.3,77.1z"/>
	<path d="M10.5,85.7c-0.4-0.1-0.6-0.5-0.5-0.9c0.1-0.4,0.5-0.6,0.9-0.5c0,0,0.1,0,0.1,0l12.3,5c0.4,0.2,0.6,0.6,0.4,1
		c-0.2,0.4-0.6,0.5-0.9,0.4L10.5,85.7z"/>
	<path d="M7.3,94.4c-0.4-0.1-0.6-0.5-0.5-0.9c0.1-0.4,0.5-0.6,0.9-0.5c0,0,0.1,0,0.1,0l12.6,4.2c0.4,0.1,0.6,0.5,0.5,0.9
		c-0.1,0.4-0.5,0.6-0.9,0.5l0,0L7.3,94.4z"/>
	<path d="M4.8,103.3c-0.4-0.1-0.7-0.4-0.6-0.8c0.1-0.4,0.4-0.7,0.8-0.6c0,0,0.1,0,0.1,0l12.9,3.2c0.4,0.1,0.6,0.5,0.5,0.9
		s-0.5,0.6-0.9,0.5L4.8,103.3z"/>
	<path d="M2.8,112.3c-0.4-0.1-0.7-0.5-0.6-0.9c0.1-0.4,0.5-0.7,0.9-0.6l13.1,2.4c0.4,0.1,0.6,0.5,0.6,0.9c-0.1,0.4-0.5,0.6-0.9,0.6
		L2.8,112.3z"/>
	<path d="M1.5,121.5c-0.4,0-0.7-0.3-0.7-0.7s0.3-0.7,0.7-0.7c0.1,0,0.1,0,0.2,0l13.2,1.5c0.4,0,0.7,0.3,0.7,0.7s-0.3,0.7-0.7,0.7
		c-0.1,0-0.1,0-0.2,0L1.5,121.5z"/>
	<path d="M0.8,130.8c-0.4,0-0.7-0.4-0.7-0.8c0-0.4,0.4-0.7,0.8-0.7l0,0l13.3,0.6c0.4,0,0.8,0.3,0.8,0.7c0,0.4-0.3,0.8-0.7,0.8
		c-0.1,0-0.2,0-0.2,0L0.8,130.8z"/>
	<path d="M0.7,140.1c-0.4,0-0.7-0.3-0.7-0.7c0-0.4,0.3-0.7,0.7-0.7l13.3-0.3c0.4,0,0.7,0.3,0.7,0.7c0,0.4-0.3,0.7-0.7,0.7
		c0,0,0,0,0,0L0.7,140.1z"/>
	<path d="M1.3,149.4c-0.4,0-0.7-0.3-0.7-0.7c0-0.4,0.3-0.7,0.6-0.7l13.3-1.2c0.4,0,0.8,0.3,0.8,0.7c0,0.4-0.2,0.7-0.6,0.8
		c0,0,0,0,0,0L1.3,149.4z"/>
	<path d="M2.5,158.6c-0.4,0.1-0.8-0.2-0.8-0.6c-0.1-0.4,0.2-0.8,0.6-0.8l13.1-2.1c0.4-0.1,0.8,0.2,0.9,0.6c0.1,0.4-0.2,0.8-0.6,0.9
		c0,0,0,0-0.1,0L2.5,158.6z"/>
	<path d="M4.4,167.7c-0.4,0.1-0.8-0.1-0.9-0.5c-0.1-0.4,0.1-0.8,0.5-0.9c0,0,0.1,0,0.1,0l13-3c0.4-0.1,0.8,0.2,0.9,0.5
		c0.1,0.4-0.1,0.8-0.5,0.9c0,0,0,0,0,0L4.4,167.7z"/>
	<path d="M6.9,176.7c-0.4,0.1-0.8-0.2-0.9-0.6c-0.1-0.3,0.1-0.7,0.4-0.8l12.7-3.9c0.4-0.1,0.8,0.1,0.9,0.5c0.1,0.4-0.1,0.8-0.5,0.9
		L6.9,176.7z"/>
	<path d="M9.9,185.5c-0.4,0.2-0.8,0-1-0.4c-0.2-0.4,0-0.8,0.4-1c0,0,0.1,0,0.1,0l12.4-4.7c0.4-0.1,0.8,0.1,0.9,0.5
		c0.1,0.3-0.1,0.7-0.4,0.9L9.9,185.5z"/>
	<path d="M13.6,194c-0.4,0.2-0.8,0-1-0.4c-0.1-0.3,0-0.7,0.3-0.9l12.1-5.6c0.4-0.2,0.8,0,1,0.3c0,0,0,0,0,0c0.2,0.4,0,0.8-0.3,1
		c0,0,0,0,0,0L13.6,194z"/>
	<path d="M17.9,202.3c-0.4,0.2-0.8,0.1-1-0.3c0,0,0,0,0,0c-0.2-0.4-0.1-0.8,0.3-1c0,0,0,0,0,0l11.7-6.4c0.4-0.2,0.8-0.1,1,0.3
		c0.2,0.4,0.1,0.8-0.3,1l0,0L17.9,202.3z"/>
	<path d="M22.7,210.3c-0.3,0.3-0.8,0.2-1-0.1c-0.3-0.3-0.2-0.8,0.1-1c0,0,0.1-0.1,0.1-0.1l11.2-7.2c0.3-0.2,0.8-0.1,1,0.2
		c0.2,0.3,0.1,0.8-0.2,1L22.7,210.3z"/>
	<path d="M45.6,237.1l4.3-4.9l1.4-8.4c0-0.1,0.1-0.3,0.2-0.4c0.3-0.3,0.8-0.3,1.1,0c0.2,0.2,0.3,0.4,0.2,0.7l-1.3,7.5l7.3-2.2
		c0.3-0.1,0.5,0,0.7,0.2c0.3,0.3,0.4,0.8,0.1,1.1c0,0,0,0,0,0c-0.1,0.1-0.2,0.2-0.4,0.2l-8.2,2.3l-4.3,4.9c-0.3,0.3-0.8,0.4-1.1,0.1
		c0,0,0,0,0,0C45.3,237.9,45.3,237.4,45.6,237.1C45.6,237.1,45.6,237.1,45.6,237.1"/>
	<path d="M57.3,237.9c3.1-4.4,6.8-5,10.4-2.5s4.4,6.2,1.3,10.6s-6.7,5-10.4,2.5S54.3,242.3,57.3,237.9 M58.6,238.8
		c-2.5,3.7-2.1,6.5,0.8,8.5s5.7,1.4,8.3-2.2s2.1-6.6-0.8-8.5S61.2,235.2,58.6,238.8L58.6,238.8z"/>
	<path d="M72.1,251.2l4.5-9c0.2-0.4,0.6-0.5,1-0.3c0.4,0.2,0.5,0.6,0.3,1l-4.5,9c-0.8,1.6-1,3.5,1.8,4.9s4.1,0.2,5-1.4l4.5-9
		c0.2-0.4,0.7-0.5,1-0.3c0.4,0.2,0.5,0.7,0.3,1l-4.5,9c-1.1,2.2-3.2,4-7,2S71,253.4,72.1,251.2"/>
	<path d="M87.3,262.7c-0.1,0.4-0.6,0.6-1,0.5c-0.4-0.1-0.6-0.6-0.5-1l0,0l4.7-13.1c0.1-0.4,0.6-0.6,1-0.5c0,0,0,0,0,0l4.2,1.5
		c2.2,0.7,3.4,3.1,2.7,5.4c0,0.1,0,0.1-0.1,0.2c-0.7,2.2-3,3.4-5.2,2.7c0,0,0,0-0.1,0l2,6.6c0.1,0.2,0.1,0.3,0,0.5
		c-0.1,0.4-0.6,0.6-1,0.5c0,0,0,0,0,0c-0.3-0.1-0.4-0.3-0.5-0.6l-2.2-7.6l-2.2-0.8L87.3,262.7z M89.9,255.7l3.6,1.3
		c1.6,0.4,3.2-0.5,3.6-2.1c0.4-1.4-0.3-2.9-1.7-3.5l-3.5-1.3L89.9,255.7z"/>
	<path d="M111.5,262.9l-1.1,6.5c-0.1,0.4-0.5,0.7-0.9,0.6c-0.4-0.1-0.7-0.5-0.6-0.9l0,0l2.3-13.9c0.1-0.4,0.5-0.7,1-0.5
		c0.4,0.1,0.6,0.4,0.6,0.8l-1,6.1l7.8,1.3l1-6.1c0.1-0.4,0.5-0.7,0.9-0.6c0.4,0.1,0.7,0.5,0.6,0.9l0,0l-2.3,13.9
		c0,0.4-0.4,0.8-0.8,0.7s-0.8-0.4-0.7-0.8c0-0.1,0-0.1,0-0.2l1.1-6.5L111.5,262.9z"/>
	<path d="M128.5,267.7l-1.8,4.1c-0.1,0.3-0.4,0.5-0.8,0.5c-0.4,0-0.8-0.4-0.7-0.8c0-0.1,0-0.2,0.1-0.3l6-13.8
		c0.1-0.3,0.4-0.5,0.8-0.5c0.3,0,0.6,0.2,0.7,0.5l5,14.2c0,0.1,0,0.2,0,0.3c0,0.4-0.4,0.8-0.9,0.7c-0.3,0-0.6-0.2-0.7-0.5l-1.5-4.2
		L128.5,267.7z M132,259.4l-2.9,6.9l5.4,0.2L132,259.4z"/>
	<path d="M144.9,271.6c0,0.4-0.3,0.8-0.7,0.8c-0.4,0-0.8-0.3-0.8-0.7c0,0,0,0,0,0l-1.2-13.9c0-0.4,0.3-0.8,0.7-0.8c0,0,0,0,0,0
		l4.5-0.4c2.5-0.1,4.5,1.8,4.6,4.3c0.1,2.3-1.6,4.3-3.9,4.6l-3.7,0.3L144.9,271.6z M144.3,264.4l3.5-0.3c1.7-0.1,2.9-1.6,2.7-3.3
		c-0.1-1.7-1.6-2.9-3.3-2.7l-3.5,0.3L144.3,264.4z"/>
	<path d="M160,269.8c0.1,0.4-0.2,0.8-0.6,0.9c-0.4,0.1-0.8-0.2-0.9-0.6l0,0l-2.7-13.7c-0.1-0.4,0.2-0.8,0.6-0.9c0,0,0,0,0,0l4.4-0.9
		c2.4-0.4,4.7,1.3,5.1,3.7c0.4,2.3-1.1,4.5-3.3,5l-3.7,0.7L160,269.8z M158.5,262.7l3.5-0.7c1.7-0.3,2.7-1.9,2.4-3.6
		c-0.3-1.7-1.9-2.7-3.6-2.4l-3.5,0.7L158.5,262.7z"/>
	<path d="M176.5,265.7l-2-6.2L168,254c-0.1-0.1-0.2-0.2-0.2-0.3c-0.1-0.4,0.1-0.8,0.5-1c0.2-0.1,0.5,0,0.7,0.1l5.8,4.9l1.9-7.4
		c0.1-0.3,0.3-0.5,0.5-0.5c0.4-0.1,0.8,0.1,1,0.5c0,0,0,0,0,0c0,0.1,0,0.3,0,0.4l-2.1,8.2l2,6.2c0.1,0.4-0.2,0.8-0.6,0.9
		C177.1,266.2,176.8,266,176.5,265.7"/>
	<path d="M192.9,244.2c-2.1,1.1-2.4,2.6-1.8,3.7c1.8,3.3,8.6-2.1,11.2,2.8c1.3,2.5,0.3,4.8-2.8,6.5c-1.9,1.1-4.1,1.1-6,0
		c-0.1-0.1-0.2-0.2-0.3-0.3c-0.2-0.3-0.1-0.8,0.3-1c0,0,0,0,0.1,0c0.2-0.1,0.5-0.1,0.7,0c1.4,0.8,3.2,0.8,4.6,0
		c2.2-1.2,3-2.7,2.1-4.5c-2-3.8-8.7,2-11.2-2.8c-1-1.9-0.5-4.2,2.5-5.7c1.7-1,3.7-1,5.4-0.2c0.1,0.1,0.3,0.2,0.3,0.3
		c0.2,0.3,0.1,0.8-0.3,1c-0.2,0.1-0.5,0.1-0.7,0C195.6,243.4,194.1,243.5,192.9,244.2"/>
	<path d="M200.9,240.2c-0.3,0.3-0.8,0.2-1-0.1s-0.2-0.8,0.1-1c0,0,0.1-0.1,0.1-0.1l8-5.4c0.4-0.2,0.8-0.1,1,0.3
		c0.2,0.3,0.1,0.7-0.2,0.9l-3.4,2.3l7.4,11c0.2,0.4,0.1,0.8-0.2,1.1c-0.4,0.2-0.8,0.1-1.1-0.2l-7.4-11L200.9,240.2z"/>
	<path d="M218.7,238.9l1.4,4.2c0.2,0.4-0.1,0.9-0.5,1c-0.3,0.1-0.6,0-0.8-0.2c-0.1-0.1-0.1-0.2-0.2-0.3l-4.8-14.3
		c-0.1-0.3,0-0.7,0.2-0.9c0.3-0.2,0.6-0.2,0.9-0.1l13.3,7.2c0.1,0.1,0.2,0.1,0.3,0.2c0.3,0.3,0.2,0.8-0.1,1.1
		c-0.2,0.2-0.6,0.2-0.9,0.1l-4-2.1L218.7,238.9z M215.7,230.5l2.4,7l4.1-3.5L215.7,230.5z"/>
	<path d="M221.1,224.5c-0.3,0.3-0.7,0.3-1,0c-0.3-0.3-0.3-0.7,0-1l6.7-7c0.3-0.3,0.8-0.2,1,0.1c0.2,0.3,0.2,0.6,0,0.9l-2.8,2.9
		l9.5,9.2c0.3,0.3,0.3,0.8,0,1.1c-0.3,0.3-0.8,0.3-1.1,0c0,0,0,0,0,0l-9.5-9.2L221.1,224.5z"/>
	<path d="M242,221.1c0.3,0.3,0.4,0.8,0.1,1.1s-0.8,0.4-1.1,0.1l-10.9-8.9c-0.3-0.3-0.4-0.8-0.1-1.1s0.8-0.4,1.1-0.1l0,0L242,221.1z"
		/>
	<path d="M239.8,212.7c-4.5-3-5.2-6.6-2.8-10.3s6.1-4.5,10.6-1.5s5.2,6.6,2.8,10.3S244.2,215.7,239.8,212.7 M240.7,211.4
		c3.7,2.4,6.6,1.9,8.5-1s1.2-5.8-2.5-8.2s-6.6-1.9-8.5,1S236.9,209,240.7,211.4L240.7,211.4z"/>
	<path d="M248.2,183.5l12.8,6.1c0.4,0.2,0.5,0.6,0.4,1c-0.1,0.2-0.3,0.4-0.6,0.4l-14.4,2.1l10.5,5c0.4,0.2,0.5,0.6,0.4,1
		c-0.2,0.4-0.6,0.5-1,0.4l-12.8-6c-0.4-0.2-0.5-0.6-0.4-1c0.1-0.2,0.3-0.4,0.5-0.4l14.4-2.1l-10.5-5c-0.4-0.2-0.5-0.6-0.4-1
		S247.8,183.3,248.2,183.5L248.2,183.5"/>
	<path class="st0" d="M114.5,172c-2.6,0-5.3-0.5-7.7-1.3c-4.3-1.6-8.3-4-11.5-7.3c-2.9-2.7-5.6-5.5-8.4-8.3
		c-1.4-1.4-2.8-2.9-4.3-4.3c-0.7-0.7-1.5-1.4-2.2-2.2c-1.1-1-2.2-2.1-3.3-3.3c-0.7-0.7-1.1-1.6-1.4-2.6c-0.4-1.4,0.3-2.8,1.6-3.3
		c3.1-1.4,5.7-3.7,7.6-6.5c4-6.2,4.6-12.6,1.8-18.9c-1.7-3.9-4.9-6.7-9.6-8.6c-0.5-0.2-1-0.4-1.5-0.5c-0.2-0.1-0.3-0.1-0.5-0.1l0,0
		c-0.1,0.1-0.1,0.2-0.1,0.4c-0.1,0.8-0.3,1.6-0.4,2.5c-0.5,2.5-0.9,5.1-1.2,7.7c-0.5,4.7-0.9,9.4-1.4,14.1c-0.5,5-0.9,9.9-1.5,14.9
		c-0.5,5.4-2.4,10.6-5.6,15c-2.3,3.1-5.3,5.7-8.8,7.4c-2.9,1.6-6.1,2.4-9.4,2.5c-0.4,0-0.8,0-1.2,0c-3.3-0.2-5.6-1.3-7.2-3.5
		l-0.1-0.1l-0.6-1.5v-0.2c0-1.4,0.8-2.6,2.1-3c0.3-0.1,0.7-0.2,1-0.2c1,0,2,0.5,2.6,1.4c0.8,0.9,1.9,1.4,3.1,1.4
		c0.6,0,1.2-0.1,1.8-0.2c7.5-1.5,12.5-6,14.8-13.4c1.6-5.1,2.2-10.3,2.8-16.1l0.1-1c0.7-7.3,1.4-14.8,2.2-22.2
		c0.2-1.6,0.5-3.2,0.9-4.7c0.1-0.5,0.2-1.1,0.4-1.6c0-0.2,0.1-0.4,0.1-0.6c-0.2,0-0.4-0.1-0.6-0.1c-1-0.1-2.1-0.2-3.1-0.2
		c-2.7,0-5.4,0.4-8,1.1c-5.2,1.4-10,3.9-14.1,7.4c-5.1,4.2-8.2,10.4-8.6,17c-0.3,3.5,0.2,6.9,1.5,10.2c1.9,4.8,5.9,8.4,10.9,9.8
		c1.1,0.3,2.2,0.5,3.3,0.6l1.2,0.2c1.8,0.3,2.9,1.5,2.8,3c-0.1,1.7-1.5,3-3.2,3c-4.3,0-8.5-1.3-12.1-3.8c-5.1-3.6-8.6-9-9.8-15.1
		c-1.6-7-0.6-14.3,2.8-20.6c2.1-3.9,5-7.3,8.5-9.9c2.8-2.2,5.9-4,9.2-5.4c0.3-0.1,0.6-0.3,0.9-0.5l0.5-0.2l3.4-1.2l1.5-0.4
		c1.1-0.3,2.1-0.5,3.2-0.7c2-0.4,4.1-0.6,6.2-0.6c3.4,0,6.7,0.5,9.9,1.6c5.9,1.9,10.3,4.7,13.4,8.5c4.4,5.5,6,12,4.7,19.4
		c-1.1,6.4-4.8,12.1-10.2,15.8c-0.2,0.1-0.4,0.3-0.5,0.4c0.1,0.1,0.2,0.2,0.4,0.4c1.3,1.3,2.6,2.6,3.8,3.9c3,3,6.1,6.1,9.2,9.1
		c2.9,2.9,6.1,5.4,9.7,7.3c2.6,1.4,5.5,2.2,8.5,2.2c2.7,0,5.4-0.7,7.8-1.9c2.2-1,4.1-2.7,5.3-4.8c1.5-2.7,1.4-6.4-0.3-8.3
		c-0.7-0.7-1.6-1.3-2.5-1.7l-0.5-0.3c-1.5-0.7-2.2-2.5-1.5-4c0.3-0.6,0.8-1.2,1.5-1.5c0.4-0.2,0.9-0.2,1.3-0.2
		c0.4,0,0.7,0.1,1.1,0.2c3.5,1.2,6.1,4,7.2,7.6c2.1,6.4-0.7,13.5-7,17.3C123.5,170.6,119.1,171.9,114.5,172L114.5,172z"/>
	<path class="st0" d="M148.3,90.1c-1.6,0-3-1-3.5-2.5c-0.8-2.4,0.4-4.9,2.6-5.9c0.5-0.2,0.9-0.3,1.4-0.3c1.6,0,3.1,1,3.6,2.5
		c0.9,2.4-0.4,5.1-2.8,6C149.3,90.1,148.8,90.2,148.3,90.1L148.3,90.1z"/>
	<path class="st0" d="M198.1,158.8c-1-1.7-2.3-3.1-3.9-4.2c3.3-4.2,4.4-9.7,3-14.9c-1-4.1-3.6-7.5-7.2-9.7c-3.9-2.4-8.4-3.7-13-3.6
		c-1.5,0-3,0.1-4.5,0.3c-1.2,0.2-2.4,0.4-3.5,0.6c-0.5,0.1-1,0.2-1.6,0.3l-3.8,1.4l-1.5,0.7l-2.8,1.3c-4.3,2.1-8.1,5-11.3,8.5
		c-4.4,4.6-7.3,10.4-8.5,16.7c-1.3,6.8-0.4,12.6,2.6,17.7c2.4,4.4,6.7,7.6,11.7,8.5c0.9,0.2,1.9,0.3,2.9,0.3c0.2,0,0.4,0,0.6,0
		c1.6,0,2.8-1.3,2.9-2.8c0-1.5-1.2-2.8-2.7-3l-0.9-0.1c-0.3,0-0.5-0.1-0.8-0.1c-2.2-0.3-4.2-1.3-5.9-2.8c-2.8-2.6-4.5-6.1-4.8-9.9
		c-0.6-6,1-12,4.5-17c2.4-3.5,5.4-6.5,9-8.8c2.7-1.8,5.6-3.2,8.6-4.3c2.3-0.9,4.7-1.5,7.2-1.7c-0.2,0.4-0.3,0.8-0.4,1.2l-0.4,1.5
		c-0.5,1.7-0.9,3.5-1.1,5.3c-0.4,3.9-0.8,8-1.1,11.9c-0.1,1.8-0.3,3.7-0.5,5.5c-0.1,1.2-0.2,2.4-0.3,3.6c-0.3,3.4-0.6,7-1,10.5
		c-0.6,5.2-1.9,8.9-4.1,12c0,0.1-0.1,0.1-0.1,0.2H165c-2.1-0.3-4.2-0.4-6.4-0.5c-1.7,0-3.4,0.1-5,0.5c-2.7,0.4-5.2,1.8-6.9,3.9
		c-1.2,1.4-1.6,3.4-1,5.2c0.7,1.7,2.2,3,4,3.4c1,0.3,2,0.4,3,0.4c1.7,0,3.3-0.3,4.9-0.8c3.8-1.1,7.3-3.1,10.2-5.9
		c0.1,0,0.2-0.1,0.3-0.1c0.8,0,1.6,0.1,2.4,0.1s1.8,0.1,2.7,0.1h0.9c5,0.2,10-1.2,14.3-3.8c6.3-3.7,10.5-10.1,11.6-17.3
		C200.6,165.7,199.9,162,198.1,158.8 M152.8,192.1c-0.6,0.1-1.2,0-1.9-0.1c-0.8-0.2-1-0.9-0.4-1.4c0.8-0.6,1.6-1.1,2.5-1.5
		c2.8-1,5.7-0.9,8.7-0.6C159.1,190.3,156,191.6,152.8,192.1L152.8,192.1z M193.5,173.5c-2.5,5.5-7.4,9.6-13.2,11
		c-3.2,0.8-6.5,1.1-9.8,0.8c0.8-2.3,1.8-4.5,2.5-6.8c1.1-4.3,1.8-8.6,2-13c0.6-7.7,1.2-15.4,1.8-23.1c0.1-3,0.7-5.9,1.7-8.8
		c1-2.3,1.4-2.5,3.8-1.7c2.9,0.8,5.5,2.4,7.5,4.6c2.3,2.6,3.3,6,2.8,9.3c-0.4,2.7-1.5,5.2-3.3,7.1c-0.2,0.2-0.5,0.3-0.8,0.3
		c-2.5-0.3-5,0-7.4,0.8c-1.4,0.4-2.7,1.3-3.6,2.5c-1.2,1.3-1.1,3.4,0.2,4.6c0.5,0.4,1.1,0.7,1.8,0.8c1.6,0.3,3.3,0.1,4.8-0.5
		c1.9-0.8,3.8-1.8,5.4-3.1c0.3-0.3,0.8-0.3,1.1-0.1c1.5,0.8,2.7,2.2,3.3,3.8C195.5,165.8,195.3,170,193.5,173.5L193.5,173.5z
		 M185.9,156.9c-1.1,1.4-4.9,2.8-5.9,1.9C180.8,157.4,183.9,156.4,185.9,156.9L185.9,156.9z"/>
	<path class="st0" d="M294.9,128.1c-1.2-3.7-4.6-6.3-8.5-6.3c-1.3,0-2.7,0.3-3.9,0.9c-2.8,1.2-4.9,3.7-5.6,6.7
		c-0.4,1.5,0.4,3,1.9,3.5c0.3,0.1,0.7,0.2,1.1,0.2c1.3,0,2.4-0.9,2.7-2.1c0.2-1.1,1-2.1,2-2.6c0.5-0.3,1.1-0.4,1.7-0.4
		c1.8,0,3.3,1.6,3.2,3.4c0,0,0,0,0,0c0.2,3.2-1.1,5.9-4,8.5c-3.6,3.2-8,4.7-11.7,5.7c-6.1,1.7-11.1,2.7-17.3,4.4l-14.5,4
		c-0.5,0.1-1,0.2-1.5,0.3l-0.1-0.1l-0.5,0.2h-0.2h-0.3c-0.3,0-0.6-0.1-0.9-0.2c-0.1-0.1-0.1-0.2-0.1-0.3c-0.2-0.6-0.2-1.2-0.2-1.9
		c0.2-2.5,0.4-5,0.6-7.4l0.3-3.5c0.3-2.3,0.3-4.6,0-6.9c-0.2-2.7-2.5-4.8-5.3-4.8c-0.3,0-0.6,0-0.9,0h-0.8c-1.1,0-1.2-0.2-1.2-1.4
		c0-0.2,0-0.5,0-0.7c0.1-1.3-0.9-2.5-2.2-2.6c-0.1,0-0.3,0-0.4,0c-1.3,0-2.4,0.8-2.8,2c-0.2,0.6-0.3,1.2-0.3,1.8l-0.7,8.3
		c-0.5,5.6-1,11.2-1.5,16.8c-0.1,1.7-0.4,3.4-0.8,5c-0.2,1.3-1.1,2.5-2.3,3.1c-0.3,0.2-0.7,0.2-1,0.3c-0.2,0-0.6,0-0.8-1.1
		c-0.1-0.6-0.1-1.2,0-1.7c0.2-3.2,0.5-6.4,0.7-9.5l0.4-5.3c0.1-1.7,0.3-3.5,0.4-5.2c0.3-1.4-0.6-2.7-2-3.1c-0.2,0-0.4-0.1-0.6-0.1
		c-1.2,0-2.2,0.7-2.7,1.8c-0.2-0.1-0.4-0.1-0.6-0.2c-0.7-0.2-1.3-0.3-2-0.3c-2.1,0-4,0.9-5.5,2.3c-2.1,2.1-3.4,4.9-3.6,7.8
		c-0.6,4.5-1,9.1-1.3,13.1c-0.2,1.7-0.2,3.4-0.1,5.1c0.1,2.3,1.3,4.3,3.3,5.4c1,0.5,2,0.8,3.1,0.7c2.5,0,5-1.1,6.7-3
		c0.4-0.5,0.8-1.1,1.2-1.7c0,0,0,0,0-0.1c0.9,0.5,1.8,0.8,2.8,0.8c0.2,0,0.5,0,0.8,0c2.9-0.2,5.5-1.9,6.9-4.4
		c1.6-2.7,2.4-5.8,2.5-8.9c0.3-3.8,0.6-7.6,0.9-11.3c0,0,0.6-6.8,0.7-8c0.4,0.1,0.9,0.2,1.3,0.2h1c0.5,0,0.7,0.2,0.7,0.6
		c0.1,0.7,0.1,1.5,0.1,2.2c-0.3,3.1-0.5,6.2-0.8,9.4l-0.3,3.5c-0.2,1.6,0,3.2,0.4,4.8c0.6,2.5,2.6,4.3,5.1,4.7h0.7
		c0.4,0,0.8,0,1.2-0.1c1-0.1,2.1-0.2,3.1-0.5c3-0.8,6-1.6,9-2.4l4.3-1.2l7.8-2.2c4.6-1.3,8.2-2,12.8-3.4c4.1-1.1,8.1-3,11.6-5.4
		c3.2-2.2,5.5-5.3,6.7-9C295.6,133.6,295.7,130.8,294.9,128.1 M214.2,145.9c-0.4,4.6-0.8,9.1-1.2,13.7c-0.1,1.9-0.7,3.8-1.8,5.4
		c-0.6,0.8-1.4,1.3-2.3,1.5c-1.7,0.4-2.5-0.8-2.7-1.9c-0.1-0.5-0.1-1-0.1-1.5c0.4-4.8,0.8-9.5,1.3-14.3c0.1-1.7,0.6-3.4,1.5-4.8
		c0.6-1,1.6-1.7,2.7-1.9c1.1-0.3,2.3,0.3,2.6,1.4c0,0,0,0,0,0C214.2,144.3,214.3,145.1,214.2,145.9L214.2,145.9z"/>
	<path class="st0" d="M212,93.6c-1-3.3-4.1-5.6-7.6-5.6c-1.2,0-2.4,0.3-3.5,0.8c-2.5,1.1-4.4,3.3-5,6c-0.4,1.3,0.4,2.7,1.7,3.1
		c0.3,0.1,0.6,0.1,1,0.1c1.1,0,2.1-0.8,2.4-1.9c0.2-1,0.9-1.9,1.8-2.3c0.5-0.2,1-0.4,1.5-0.4c1.6,0.1,2.9,1.4,2.9,3
		c0.1,2.9-1,5.3-3.6,7.5c-3.2,2.9-7.1,4.2-10.5,5.1l-17.3,4.8l-4.6,1.3c0.3-1,0.5-2,0.6-3c0.6-4.2,0.9-8.5,1.2-12.5
		c0.2-2.4,0.3-4.7,0.2-7.1c-0.1-3.2-2.5-5.8-5.7-6.1h-0.7c-3.5-0.1-6.8,1.7-8.5,4.8c-1.3,2.3-2.1,4.8-2.3,7.5
		c-0.2,2.3-0.5,4.6-0.7,6.9c-0.2,2.7-0.5,5.5-0.8,8.2c-0.2,1.6-0.6,3.2-1.1,4.8c-0.4,1.2-1.2,2.1-2.3,2.6c-0.2,0.1-0.4,0.2-0.7,0.2
		c-0.5,0-1-0.3-1.1-0.9c-0.2-0.6-0.3-1.3-0.3-2c0.2-2.8,0.4-5.7,0.6-8.5l0.6-7.1c0.2-2.1,0.3-4.1,0.5-6.2c0.2-1.2-0.3-2.3-1.2-3
		c-0.5-0.3-1-0.5-1.6-0.5c-0.5,0-1.1,0.2-1.5,0.4c-1,0.6-1.6,1.8-1.6,3l-0.5,6.2c-0.3,4.5-0.7,9-1,13.5c-0.1,1.8-0.4,3.6-0.8,5.3
		c-0.3,1.4-1.2,2.7-2.5,3.3c-0.3,0.2-0.6,0.3-0.9,0.3c-0.6,0-1.1-0.5-1.1-1.1c-0.1-0.7-0.1-1.3-0.1-2c0.7-8,1.3-16,2-24l1.4-17
		c0.1-0.6,0-1.3-0.1-1.9c-0.2-1.2-1.3-2.1-2.5-2.1c-0.5,0-0.9,0.1-1.3,0.3c-1.2,0.6-2,1.9-2,3.2l-0.7,7.9l-0.9,10.9
		c-0.4-0.2-0.9-0.3-1.3-0.3c-0.3,0-0.7-0.1-1-0.1c-2.2,0-4.3,0.9-5.8,2.4c-2.2,2.2-3.5,5.1-3.8,8.2c-0.4,3.4-0.7,6.8-1.1,10.2
		c-0.2,2.1-0.4,4.3-0.6,6.4c-0.1,1.3-0.4,2.6-0.7,3.9c-0.3,1.4-1.2,2.6-2.5,3.2c-0.3,0.2-0.7,0.2-1.1,0.3l0,0c-0.2,0-0.8,0-1-1.2
		c-0.1-0.6-0.1-1.3,0-2c0.2-3,0.4-6.1,0.7-9.1l0.4-5.1c0.2-2.3,0.4-4.7,0.5-7c0.1-1.6-0.6-2.9-1.9-3.2c-0.2-0.1-0.4-0.1-0.6-0.1
		c-1.2,0-2.3,0.8-2.7,1.9c0,0,0,0.1,0,0.1c-0.3-0.1-0.5-0.2-0.8-0.3c-0.7-0.2-1.3-0.2-2-0.2c-2.1,0-4.2,0.9-5.7,2.4
		c-2.2,2.2-3.6,5.1-3.8,8.2c-0.7,5.6-1.2,11-1.6,15.6c-0.1,1.6,0,3.2,0.2,4.8c0.4,2.8,2.7,4.9,5.4,5.2c0.4,0,0.7,0.1,1.1,0.1
		c2.3,0.1,4.5-0.8,6.2-2.3c0.7-0.7,1.3-1.4,1.9-2.2l0.3-0.4c0.9,0.5,2,0.8,3.1,0.8c1.2,0,2.4-0.3,3.5-0.7c2.1-0.9,3.8-2.4,4.8-4.4
		c1,0.6,2.1,0.8,3.2,0.8c1.2,0,2.4-0.2,3.5-0.6c2.2-0.7,4-2.3,5-4.3c0.9,0.6,2,0.8,3.1,0.8c1.2,0,2.3-0.3,3.4-0.7
		c2.1-0.8,3.8-2.3,4.8-4.2c1,0.5,2.1,0.8,3.2,0.8c3.4-0.1,6.6-2,8.2-5c0.5,0.2,0.9,0.4,1.4,0.5c0.7,0.1,1.4,0.2,2.1,0.2
		c1,0,2-0.2,3-0.5c2.7-0.7,5.4-1.5,8.1-2.2l3.7-1l6.9-1.9c4.1-1.2,8.3-2.4,12.4-3.6c3.7-1,7.2-2.7,10.3-4.9c2.8-1.9,5-4.7,6-8
		c0.8-2.4,0.8-4.9,0.1-7.3 M110.9,116.8c-0.4,4.8-0.9,9.6-1.3,14.4c-0.1,2.1-0.8,4.1-1.9,5.8c-0.6,0.8-1.4,1.4-2.4,1.6
		c-1.8,0.5-2.7-0.8-2.9-2c-0.1-0.5-0.1-1.1-0.1-1.7c0.4-5.1,0.9-10.2,1.4-15.2c0.1-1.8,0.6-3.5,1.5-5.1c0.6-1.1,1.7-1.8,2.9-2.1
		c1.2-0.4,2.4,0.3,2.8,1.5c0,0,0,0,0,0c-0.2,0.8-0.1,1.7-0.1,2.6L110.9,116.8z M132.6,123.9c-0.1,2-1,3.9-2.4,5.3
		c-0.7,0.6-1.5,0.9-2.3,1.1c-1.1,0.3-2.1-0.7-2.4-2.1c-0.1-0.5-0.1-1.1-0.1-1.6c0.4-5.1,0.9-10.3,1.4-15.4c0.1-1.7,0.6-3.4,1.5-4.9
		c0.6-1.1,1.7-1.9,3-2.1c1.1-0.3,2.3,0.3,2.6,1.4c0,0,0,0,0,0.1c0.1,0.5,0.2,1,0.2,1.5c-0.7,5.5-1.1,11.1-1.7,16.7L132.6,123.9z
		 M168.4,95.6c-0.4,4.6-0.7,9.1-1.1,13.7c-0.1,2.2-0.6,4.4-1.7,6.3c-0.7,1.3-2,2.1-3.4,2.3c-1,0.2-2-0.4-2.2-1.4c0-0.1,0-0.2,0-0.3
		c-0.1-0.6-0.1-1.2-0.1-1.8c0.4-5.2,0.9-10.4,1.4-15.5c0.1-1.8,0.6-3.6,1.5-5.1c0.6-1.1,1.7-1.9,3-2.1c1.1-0.3,2.3,0.3,2.6,1.4
		c0,0,0,0,0,0c-0.2,0.8-0.1,1.7-0.2,2.5L168.4,95.6z"/>
</g>
</svg>
