<?xml version="1.0" standalone="no"?>
<!DOCTYPE svg PUBLIC "-//W3C//DTD SVG 20010904//EN"
 "http://www.w3.org/TR/2001/REC-SVG-20010904/DTD/svg10.dtd">
<svg version="1.0" xmlns="http://www.w3.org/2000/svg"
 width="200.000000pt" height="283.000000pt" viewBox="0 0 200.000000 283.000000"
 preserveAspectRatio="xMidYMid meet">

<g transform="translate(0.000000,283.000000) scale(0.100000,-0.100000)"
fill="#000000" stroke="none">
<path d="M960 1584 c0 -16 -11 -36 -25 -50 -19 -17 -25 -33 -25 -63 0 -22 -4
-43 -10 -46 -6 -4 -10 12 -10 40 0 42 -2 46 -22 43 -19 -2 -25 -12 -32 -51 -6
-29 -6 -51 0 -57 8 -8 91 14 119 32 6 3 60 20 120 38 61 18 116 37 123 42 20
17 15 58 -7 58 -11 0 -23 -5 -27 -11 -4 -8 1 -9 16 -4 18 6 21 3 18 -11 -4
-21 -39 -41 -87 -50 l-31 -6 0 46 c0 39 -3 47 -16 44 -21 -4 -31 -23 -39 -70
-3 -21 -11 -38 -17 -38 -7 0 -8 14 -4 40 4 25 2 40 -4 40 -5 0 -10 -15 -10
-34 0 -39 -9 -68 -19 -62 -3 2 -4 38 -1 80 3 42 2 76 -2 76 -5 0 -8 -12 -8
-26z m108 -56 c-4 -49 -28 -66 -28 -20 0 37 9 62 22 62 5 0 8 -19 6 -42z
m-122 -85 c-3 -8 -11 -11 -17 -7 -11 6 -4 68 9 89 9 13 15 -62 8 -82z m-71 3
c-4 -20 -13 -36 -21 -36 -13 0 -12 34 2 79 10 30 25 -7 19 -43z"/>
<path d="M995 1591 c-3 -5 -1 -12 5 -16 5 -3 10 1 10 9 0 18 -6 21 -15 7z"/>
<path d="M654 1521 c-38 -23 -59 -76 -45 -114 14 -36 71 -74 71 -47 0 6 -6 10
-14 10 -21 0 -46 39 -46 71 0 33 41 75 81 84 17 4 32 5 34 3 2 -1 -1 -39 -6
-83 -7 -68 -12 -83 -35 -103 -17 -15 -33 -21 -46 -16 -14 4 -18 2 -14 -5 9
-14 41 -14 65 -1 25 13 38 52 46 133 7 70 23 88 45 48 16 -30 12 -63 -10 -86
l-20 -22 49 -46 c53 -50 90 -60 125 -34 20 15 19 68 -2 75 -11 3 -11 0 0 -18
12 -19 10 -23 -11 -41 -30 -25 -55 -18 -103 29 l-37 35 19 25 c27 33 25 68 -5
97 -30 31 -95 34 -141 6z"/>
<path d="M1447 1454 c-13 -13 -7 -27 6 -15 8 6 17 8 20 4 22 -21 -11 -48 -81
-68 -31 -9 -65 -18 -74 -21 -15 -4 -18 1 -18 33 0 36 -14 63 -32 63 -4 0 -8
-17 -8 -37 0 -46 -9 -83 -20 -83 -5 0 -6 18 -3 40 5 36 3 40 -16 40 -25 0 -44
-39 -39 -79 3 -22 8 -26 31 -24 43 3 57 20 57 69 0 24 5 44 10 44 6 0 10 -18
10 -40 0 -47 3 -47 94 -24 83 21 108 38 104 72 -3 26 -26 40 -41 26z m-226
-100 c-7 -41 -28 -44 -23 -4 4 37 11 52 20 46 5 -3 6 -22 3 -42z"/>
<path d="M1043 1430 c-70 -36 -92 -115 -43 -157 13 -12 16 -19 8 -24 -6 -4 -8
-14 -5 -23 6 -15 10 -15 43 -1 20 8 46 15 58 15 13 0 32 11 45 23 19 21 21 32
16 88 -3 35 -11 69 -18 76 -24 23 -61 24 -104 3z m41 -42 c-11 -102 -16 -128
-24 -133 -4 -3 -22 7 -39 22 -42 37 -41 75 3 119 48 48 65 45 60 -8z m54 30
c17 -17 15 -58 -3 -58 -8 0 -15 -5 -15 -11 0 -5 -4 -7 -10 -4 -5 3 -10 1 -10
-5 0 -6 12 -9 28 -8 21 2 28 -2 30 -19 4 -26 -30 -63 -59 -63 -18 0 -20 4 -14
48 3 26 8 66 11 90 5 42 19 53 42 30z m-101 -184 c-3 -3 -12 -4 -19 -1 -8 3
-5 6 6 6 11 1 17 -2 13 -5z"/>
</g>
</svg>
